<svg width="74" height="46" viewBox="0 0 74 46" fill="none" xmlns="http://www.w3.org/2000/svg">
<path fill-rule="evenodd" clip-rule="evenodd" d="M59.6106 40.0072V40.0072V39.8512H59.4558V40.0072L59.3009 39.8512H59.4558L59.3009 39.6951V39.6951H59.146V39.5391V39.5391L58.9912 39.3831L58.8363 39.5391V39.5391L58.9912 39.3831V39.3831H58.6814V39.227V39.227L58.5266 39.071L58.3717 39.227V39.227H58.2168V39.227H58.062H57.9071V39.227H57.7522V39.071V39.071V39.071H57.9071V38.759V38.6029V38.6029V38.6029H57.7522V38.4469H57.5974V38.4469H57.4425V38.2909H57.5974V38.2909H57.7522V38.2909V38.1348H57.5974V38.1348L57.4425 37.9788H57.5974V37.8228V37.8228V37.6668H57.7522V37.6668H57.9071H57.7522L57.9071 37.5107L58.062 37.6668L57.9071 37.5107V37.5107H58.062L58.2168 37.3547H58.062V37.3547V37.1987L58.2168 37.0427H58.3717H58.2168L58.3717 36.8866H58.5266H58.3717L58.5266 36.7306V36.7306H58.6814V36.5746V36.5746L58.8363 36.2625L58.9912 36.1065V35.9505H59.146L59.3009 35.7944L59.4558 35.6384H59.6106H59.7655V35.3263L59.9204 35.1703L60.0752 35.0143H60.385H60.6947V35.0143L61.1593 35.1703L61.3142 35.3263H61.4691H61.6239H61.9337H62.0885L62.3983 35.1703H62.5531H62.8629L63.1726 35.0143H63.3275H63.6372H63.7921L64.2567 35.1703V35.3263L64.4115 35.4824L64.7213 35.7944L64.8761 35.9505L65.031 36.4185V36.5746V36.7306V36.8866V36.8866L65.3407 37.1987L65.4956 37.3547L65.6505 37.5107V37.6668V37.8228V37.9788H65.8053L65.9602 38.2909H66.1151L66.2699 38.4469H66.4248L66.5797 38.6029V38.759V38.915H66.7345L66.8894 39.071V39.071V39.071L67.0443 39.227V39.3831V39.3831L67.1991 39.5391V39.8512V40.0072V39.8512V39.8512V40.0072L67.354 40.1632V40.3192V40.4753V40.4753V40.6313V40.6313H67.1991H67.0443V40.6313V40.7873H66.8894V40.9434H66.7345V41.0994V41.0994L66.5797 41.2554V41.2554V41.2554H66.4248V41.4114L66.2699 41.5675H66.4248H66.2699V41.5675V41.7235V41.8795V41.8795L66.1151 42.0356L66.2699 42.3476H66.1151L66.2699 42.5036V42.6597V42.5036H65.9602V42.6597V42.5036H65.8053V42.6597V42.6597L65.6505 42.8157V42.8157H65.4956V42.8157V42.9717L65.3407 43.1278V43.1278V43.1278V43.1278V43.1278L65.1859 43.2838V43.2838L65.031 43.1278V43.1278H64.8761V43.1278L64.7213 42.8157H64.4115V42.8157H64.2567H64.1018V42.6597L63.9469 42.5036H63.7921V42.5036V42.5036V42.5036L63.6372 42.3476H63.4823H63.3275V42.3476H63.1726V42.3476L63.0177 42.1916H62.8629L62.5531 42.0356V42.1916V42.0356H62.3983V42.0356H62.2434V42.0356H62.0885H61.9337V41.8795V41.7235H61.6239L61.7788 41.5675H61.6239L61.7788 41.4114H61.6239L61.4691 41.2554V41.0994H61.3142L61.0045 40.9434V40.7873H60.8496H60.6947V40.7873H60.5399H60.385V40.6313H60.2301V40.4753V40.4753L60.0752 40.6313L59.9204 40.4753V40.4753H59.7655V40.3192L59.6106 40.4753V40.3192V40.3192V40.0072Z" fill="white"/>
<path d="M59.6106 40.0072V40.0072ZM59.6106 40.0072V39.8512H59.4558M59.6106 40.0072V40.3192M59.4558 39.8512V40.0072L59.3009 39.8512H59.4558ZM59.4558 39.8512L59.3009 39.6951M59.3009 39.6951V39.6951ZM59.3009 39.6951H59.146V39.5391M59.146 39.5391V39.5391ZM59.146 39.5391L58.9912 39.3831M58.9912 39.3831L58.8363 39.5391M58.9912 39.3831V39.3831ZM58.9912 39.3831H58.6814V39.227M58.8363 39.5391V39.5391ZM58.6814 39.227V39.227ZM58.6814 39.227L58.5266 39.071L58.3717 39.227M58.3717 39.227V39.227ZM58.3717 39.227H58.2168M58.2168 39.227V39.227ZM58.2168 39.227H58.062H57.9071M57.9071 39.227V39.227ZM57.9071 39.227H57.7522V39.071M57.7522 39.071V39.071ZM57.7522 39.071H57.9071V38.759V38.6029M57.9071 38.6029V38.6029ZM57.9071 38.6029H57.7522V38.4469H57.5974M57.5974 38.4469V38.4469ZM57.5974 38.4469H57.4425V38.2909H57.5974M57.5974 38.2909V38.2909ZM57.5974 38.2909H57.7522M57.7522 38.2909V38.2909ZM57.7522 38.2909V38.1348H57.5974M57.5974 38.1348V38.1348ZM57.5974 38.1348L57.4425 37.9788H57.5974V37.8228M57.5974 37.8228V37.8228ZM57.5974 37.8228V37.6668H57.7522M57.7522 37.6668V37.6668ZM57.7522 37.6668H57.9071M57.7522 37.6668L57.9071 37.5107M57.9071 37.5107L58.062 37.6668M57.9071 37.5107V37.5107ZM57.9071 37.5107H58.062L58.2168 37.3547H58.062M58.062 37.3547V37.3547ZM58.062 37.3547V37.1987L58.2168 37.0427M58.2168 37.0427H58.3717M58.2168 37.0427L58.3717 36.8866M58.3717 36.8866H58.5266M58.3717 36.8866L58.5266 36.7306M58.5266 36.7306V36.7306ZM58.5266 36.7306H58.6814V36.5746M58.6814 36.5746V36.5746ZM58.6814 36.5746L58.8363 36.2625L58.9912 36.1065V35.9505H59.146L59.3009 35.7944L59.4558 35.6384H59.6106H59.7655V35.3263L59.9204 35.1703L60.0752 35.0143H60.385H60.6947M60.6947 35.0143V35.0143ZM60.6947 35.0143L61.1593 35.1703L61.3142 35.3263H61.4691H61.6239H61.9337H62.0885L62.3983 35.1703H62.5531H62.8629L63.1726 35.0143H63.3275H63.6372H63.7921L64.2567 35.1703V35.3263L64.4115 35.4824L64.7213 35.7944L64.8761 35.9505L65.031 36.4185V36.5746V36.7306V36.8866M65.031 36.8866V36.8866ZM65.031 36.8866L65.3407 37.1987L65.4956 37.3547L65.6505 37.5107V37.6668V37.8228V37.9788H65.8053L65.9602 38.2909H66.1151L66.2699 38.4469H66.4248L66.5797 38.6029V38.759V38.915H66.7345L66.8894 39.071M66.8894 39.071V39.071ZM66.8894 39.071L67.0443 39.227V39.3831M67.0443 39.3831V39.3831ZM67.0443 39.3831L67.1991 39.5391V39.8512M67.1991 39.8512V40.0072L67.354 40.1632V40.3192V40.4753M67.1991 39.8512V39.8512ZM67.354 40.4753V40.4753ZM67.354 40.4753V40.6313M67.354 40.6313V40.6313ZM67.354 40.6313H67.1991H67.0443M67.0443 40.6313V40.6313ZM67.0443 40.6313V40.7873H66.8894V40.9434H66.7345V41.0994M66.7345 41.0994V41.0994ZM66.7345 41.0994L66.5797 41.2554M66.5797 41.2554V41.2554ZM66.5797 41.2554H66.4248V41.4114L66.2699 41.5675M66.2699 41.5675H66.4248M66.2699 41.5675V41.5675ZM66.2699 41.5675V41.7235V41.8795M66.2699 41.8795V41.8795ZM66.2699 41.8795L66.1151 42.0356L66.2699 42.3476H66.1151L66.2699 42.5036M66.2699 42.5036V42.6597M66.2699 42.5036H65.9602M65.9602 42.5036V42.6597M65.9602 42.5036H65.8053V42.6597M65.8053 42.6597V42.6597ZM65.8053 42.6597L65.6505 42.8157M65.6505 42.8157V42.8157ZM65.6505 42.8157H65.4956M65.4956 42.8157V42.8157ZM65.4956 42.8157V42.9717L65.3407 43.1278M65.3407 43.1278V43.1278ZM65.3407 43.1278L65.1859 43.2838M65.1859 43.2838V43.2838ZM65.1859 43.2838L65.031 43.1278M65.031 43.1278V43.1278ZM65.031 43.1278H64.8761M64.8761 43.1278V43.1278ZM64.8761 43.1278L64.7213 42.8157H64.4115M64.4115 42.8157V42.8157ZM64.4115 42.8157H64.2567H64.1018V42.6597L63.9469 42.5036H63.7921M63.7921 42.5036V42.5036ZM63.7921 42.5036L63.6372 42.3476H63.4823H63.3275M63.3275 42.3476V42.3476ZM63.3275 42.3476H63.1726M63.1726 42.3476V42.3476ZM63.1726 42.3476L63.0177 42.1916H62.8629L62.5531 42.0356M62.5531 42.0356V42.1916M62.5531 42.0356H62.3983M62.3983 42.0356V42.0356ZM62.3983 42.0356H62.2434M62.2434 42.0356V42.0356ZM62.2434 42.0356H62.0885H61.9337V41.8795V41.7235H61.6239L61.7788 41.5675H61.6239L61.7788 41.4114H61.6239L61.4691 41.2554V41.0994H61.3142L61.0045 40.9434V40.7873H60.8496H60.6947M60.6947 40.7873V40.7873ZM60.6947 40.7873H60.5399H60.385V40.6313H60.2301V40.4753M60.2301 40.4753V40.4753ZM60.2301 40.4753L60.0752 40.6313L59.9204 40.4753M59.9204 40.4753V40.4753ZM59.9204 40.4753H59.7655V40.3192L59.6106 40.4753V40.3192M59.6106 40.3192V40.3192Z" stroke="black"/>
<path fill-rule="evenodd" clip-rule="evenodd" d="M57.2876 36.2625H57.1327V36.2625H56.9779V36.2625H56.823L56.6681 36.1064V36.1064H56.5133V35.9504V35.9504V35.9504V35.7944V35.7944L56.3584 35.6383H56.5133L56.6681 35.4823V35.6383H56.823V35.4823H56.9779H57.1327V35.4823H57.4425V35.1703V35.0142L57.5973 34.8582V34.5461H57.7522H57.9071H58.0619L58.5265 34.7022H58.6814H58.8363V35.0142H58.9911L58.8363 35.1703H58.6814L58.8363 35.3263H58.6814L58.5265 35.4823V35.6383L58.3717 35.4823V35.6383V35.6383H58.2168V35.6383V35.6383V35.6383V35.7944V35.7944V35.7944L57.9071 35.9504V36.1064V36.1064L57.5973 36.2625V36.2625H57.2876Z" fill="white"/>
<path d="M57.1327 36.2625H57.2876H57.5973M57.1327 36.2625V36.2625ZM57.1327 36.2625H56.9779M56.9779 36.2625V36.2625ZM56.9779 36.2625H56.823L56.6681 36.1064M56.6681 36.1064V36.1064ZM56.6681 36.1064H56.5133V35.9504M56.5133 35.9504V35.9504ZM56.5133 35.9504V35.7944M56.5133 35.7944V35.7944ZM56.5133 35.7944L56.3584 35.6383H56.5133L56.6681 35.4823V35.6383H56.823V35.4823H56.9779H57.1327M57.1327 35.4823V35.4823ZM57.1327 35.4823H57.4425V35.1703V35.0142L57.5973 34.8582V34.5461H57.7522H57.9071H58.0619L58.5265 34.7022H58.6814H58.8363V35.0142H58.9911L58.8363 35.1703H58.6814L58.8363 35.3263H58.6814L58.5265 35.4823V35.6383L58.3717 35.4823V35.6383M58.3717 35.6383V35.6383ZM58.3717 35.6383H58.2168M58.2168 35.6383V35.6383ZM58.2168 35.6383V35.7944M58.2168 35.7944V35.7944ZM58.2168 35.7944L57.9071 35.9504V36.1064M57.9071 36.1064V36.1064ZM57.9071 36.1064L57.5973 36.2625M57.5973 36.2625V36.2625Z" stroke="black"/>
<path fill-rule="evenodd" clip-rule="evenodd" d="M24.4558 21.9078H23.9912L23.8363 21.7518H23.5265H23.3717L23.2168 21.5957H23.0619V21.4397L22.9071 21.2837L22.5973 21.1277H22.4425V20.9716V20.8156L22.2876 20.6596H22.1327L21.823 20.5035L21.3584 20.3475L20.8938 20.1915H20.5841L20.2743 20.0355H19.9646L19.5 19.8794L18.5708 19.7234H18.1062L17.4867 19.5674L16.7124 19.7234H16.0929H15.4735L13.7699 20.1915H12.9956V20.3475L12.3761 20.1915H12.0664H11.7566L11.4469 20.0355V19.8794L11.1372 20.0355H10.9823H10.8274L10.5177 19.8794L10.208 19.7234V19.5674V19.4113L9.89823 19.0993H9.74336L9.89823 18.9433L9.5885 18.6312L9.27876 18.3191H9.12389V18.1631H8.96903L8.81416 18.0071V17.8511L8.50442 17.539L8.34956 17.383L8.19469 17.2269V16.9149H8.03982L7.73009 16.6028H7.57522L7.42035 16.4468H7.26549L6.95575 16.1348L6.80088 15.9787L6.64602 15.6667V15.3546V15.5106V15.6667L6.80088 15.8227V15.6667V15.5106V15.3546V15.1986V14.8865L6.64602 14.7305L6.49115 14.4184H6.33628L5.87168 14.1064V13.9504L5.71681 13.7943V13.6383L5.56195 13.4823H5.40708L5.09735 13.3262V13.1702L4.94248 13.0142H4.78761V12.8582V12.7021L4.63274 12.5461V12.3901L4.47788 12.234L4.32301 11.922L4.16814 11.766L4.01327 11.2979L3.70354 10.9858V10.8298H3.54867V10.6738L3.39381 10.5177L3.23894 10.3617V10.2057H3.08407L2.9292 9.73759L2.77434 9.2695L2.61947 9.11347V8.95745V8.80142L2.4646 8.48936V8.33333V8.02128L2.30973 7.86525L2.15487 7.70922L2 7.55319L2.15487 7.39716L2 7.24113V7.08511V6.92908V6.77305H2.15487V6.61702H2.30973V6.77305H2.4646L2.61947 6.92908H2.4646H2.30973L2.4646 7.08511H2.61947H2.77434L2.61947 7.39716H2.4646L2.30973 7.24113V7.39716V7.55319H2.4646V7.70922L2.61947 7.86525H2.4646V8.02128H2.61947V7.86525H2.77434L2.9292 7.70922L3.08407 7.55319L3.23894 7.39716L3.39381 7.08511V7.39716H3.54867L3.70354 7.24113H3.85841L4.01327 7.08511H4.16814L4.32301 6.92908H4.47788V6.77305L4.16814 6.46099H4.01327H3.85841L3.70354 6.61702L3.54867 6.46099H3.39381H3.23894H3.08407L2.9292 6.30496H2.77434V6.14894H2.61947V5.99291V5.83688L2.77434 5.68085V5.52482L2.61947 5.05674V4.90071L2.4646 4.74468L2.30973 4.58865L2.15487 4.43262V4.2766H2L2.15487 4.12057V3.96454V3.65248V3.34043V3.1844V3.02837L2.30973 2.87234L2.77434 2.71631H2.9292H3.08407L3.70354 2.87234H4.16814H4.78761H4.94248H5.25221H5.40708V3.02837H5.56195V3.1844H5.71681V3.34043H5.87168L6.02655 3.65248V3.80851L6.18142 3.96454H6.33628L6.49115 4.43262H6.64602V4.58865L6.80088 4.74468L6.95575 4.90071V5.05674V5.21277V5.36879H6.80088L6.95575 5.21277L6.80088 5.05674V5.21277V5.36879H6.64602V5.52482L6.49115 5.68085H6.64602V5.83688H6.49115L6.33628 5.99291H6.49115H6.64602L6.80088 6.14894H6.95575H7.11062H7.26549L7.42035 5.99291L7.57522 5.83688L7.88496 5.52482V5.36879H8.19469V5.21277H8.34956L8.50442 5.05674L8.65929 4.90071H8.81416L8.96903 5.05674V5.21277H8.81416L8.96903 5.36879L9.12389 5.52482H9.27876L9.43363 5.36879H9.5885L9.43363 5.21277H9.27876H9.12389L8.96903 5.05674L9.12389 4.90071H9.27876L9.5885 4.74468V4.58865L9.74336 4.74468V4.58865V4.43262H9.89823H10.0531V4.2766H10.3628V4.43262H10.5177L10.6726 4.2766L10.8274 4.43262V4.58865V4.74468L10.6726 4.90071L10.5177 4.74468L10.6726 5.05674L10.8274 5.36879H10.9823L11.1372 5.21277V5.36879L11.292 5.21277V5.36879L11.4469 5.21277L11.6018 5.05674L11.7566 4.90071V5.05674L11.9115 4.90071V4.74468L12.0664 4.58865V4.43262H12.2212V4.58865L12.531 4.74468H12.8407L12.9956 4.90071H13.1504V5.21277H13.3053H13.4602H13.615V5.05674V4.90071L13.7699 5.21277H13.9248L14.2345 5.52482L14.3894 5.68085H14.5442V5.52482H14.6991V5.68085H14.854H15.0088V5.83688H15.3186L15.4735 5.68085H15.6283H15.7832H15.9381L16.0929 5.52482L16.4027 5.68085L16.5575 5.83688L16.7124 5.99291H16.8673V6.14894H17.0221L17.3319 6.30496V6.14894L17.4867 5.99291V6.14894V6.30496H17.7965H18.1062V6.46099H18.5708L18.7257 6.61702L18.8805 6.77305H19.0354V6.92908H19.1903H19.3451L19.5 7.08511L19.6549 6.92908V7.08511H19.8097H20.1195L20.2743 7.24113H20.4292H20.5841H21.0487L21.2035 7.39716H21.3584L21.6681 7.55319H21.823H21.9779L22.1327 7.70922H22.2876H22.4425L22.5973 7.86525L22.7522 8.02128L22.9071 7.86525H23.0619V8.02128L23.2168 8.1773L23.3717 8.33333H23.5265H23.6814L23.8363 8.02128V8.1773L23.9912 8.33333H24.146H24.3009V8.1773H24.4558L24.6106 8.33333L24.9204 8.48936H25.0752H25.2301H25.385H25.6947H25.8496H26.0044H26.1593H26.469V8.33333H26.6239L26.7788 8.1773H26.9336H27.0885L27.2434 8.02128L27.3982 8.1773L27.708 8.02128L27.8628 7.86525V7.70922L28.1726 7.86525H28.4823L28.792 7.70922H28.9469H29.1018H29.2566L29.5664 7.86525H29.8761L30.1858 7.70922H30.3407H30.6504H30.8053H30.9602H31.115H31.7345H32.0442L32.354 7.55319H32.5089L32.6637 7.39716H32.9735H33.1283L33.2832 7.24113H33.4381V6.92908L33.5929 6.77305H33.7478H33.9027H34.0575H34.2124L34.3673 6.61702L34.5221 6.46099V6.30496V6.14894H34.677L34.9867 5.99291L35.2965 5.83688L35.4513 5.68085H35.6062L35.7611 5.52482V5.36879L35.9159 5.21277L36.0708 5.05674L36.2257 4.90071V4.74468H36.3805L36.5354 4.58865V4.43262L36.6903 4.2766H36.8451L37 4.12057L37.1549 3.96454V3.80851L37.3097 3.65248H37.4646V3.49645L37.6195 3.34043H37.9292L38.2389 3.1844L38.8584 2.56028L39.1681 2.40426L39.323 2.24823L39.4779 2.0922H39.6327H39.7876L40.2522 1.93617L40.4071 1.78014L40.8717 1.62411L41.3363 1.31206L41.646 1.15603H41.8009H42.2655L43.0398 1H43.1947L43.3496 1.15603L43.5044 1.31206H43.6593H43.8142L43.969 1.62411H44.1239L44.2788 1.78014H44.5885L44.8982 1.93617L45.3628 2.0922H45.6726L45.8274 2.24823H46.1372H46.4469H46.6018L47.0664 2.40426H47.2212H47.3761L47.531 2.56028H47.6858L47.8407 2.71631L48.1504 3.02837H48.3053H48.4602L48.7699 3.1844V3.34043H49.0796H49.3894L49.5442 3.49645H49.854H50.0088L50.1637 3.65248H50.3186L50.4734 3.80851H50.6283H50.7832H51.0929H51.2478H51.4027H51.5575L51.8673 3.96454V4.12057V4.2766H52.0221L52.177 4.43262L52.4867 4.58865L52.6416 4.74468H52.7965H53.1062L53.2611 4.90071H53.4159H53.5708L53.7257 5.05674H53.8805H54.0354L54.3451 5.21277L54.8097 5.36879L55.1195 5.52482L55.2743 5.68085L55.5841 5.83688V5.99291H55.7389H56.0487L56.2035 6.14894H56.3584H56.6681L56.823 6.30496H56.9779H57.1327L57.4425 6.46099L57.7522 6.61702H57.9071L58.0619 6.77305V7.08511H58.2168H58.3717L58.5265 7.39716H58.6814L58.8363 7.55319H58.9911L59.4557 7.70922H59.6106L59.7655 8.02128L59.9204 8.1773H60.0752L60.2301 8.33333H60.5398V8.64539L60.8496 8.95745V9.11347H61.1593L61.469 9.2695L61.7788 9.58156H61.9336L62.2434 9.73759H62.3982L62.5531 9.89362L62.708 10.0496H62.8628L63.0177 10.2057L63.3274 10.3617L63.6372 10.5177L63.792 10.8298L63.9469 10.9858H64.1018L64.2566 11.2979L64.4115 11.4539H64.5664L64.7212 11.766H64.8761V11.922L65.1858 12.234L65.3407 12.5461L65.4956 12.8582L65.6504 13.1702H65.8053L65.9602 13.3262V13.4823H66.115V13.6383L66.2699 13.7943L66.4248 13.9504L66.5796 14.1064H66.7345V14.2624H66.8894V14.5745L67.0442 14.7305L67.1991 15.0426V15.1986L67.354 15.3546V15.5106L67.5088 15.6667H67.6637L67.8186 15.8227L68.1283 16.1348H68.2832L68.5929 16.2908L68.7478 16.1348L68.9027 16.2908H69.0575V16.4468H69.2124L69.3673 16.2908L69.5221 16.6028H69.677L69.8319 16.7589H69.9867L70.2965 16.9149V17.0709H70.4513H70.6062V17.2269H70.7611L70.9159 17.383L71.0708 17.539V17.383L71.2257 17.539V17.695L71.3805 17.8511V18.0071L71.5354 18.1631V18.3191H71.6903L71.8451 18.4752V18.6312V18.7872V19.0993H72V19.2553L71.8451 19.4113L72 19.5674H71.8451V19.7234L72 19.8794L71.8451 20.0355L71.6903 20.1915V20.3475L71.5354 20.5035H71.3805V20.6596V20.8156H71.2257L71.0708 20.9716V21.1277L70.9159 21.2837L70.7611 21.4397L70.6062 21.5957V21.7518H70.4513L70.2965 22.0638H70.1416V22.2199H69.9867H69.8319V22.3759H69.5221H69.3673L69.2124 22.5319L69.0575 22.6879H68.9027V22.844H68.7478H68.4381L67.9734 23.156L67.6637 23.3121V23.6241V23.7801L67.5088 23.9362H67.354V24.0922H67.1991L67.0442 24.2482V24.4043H66.8894L66.7345 24.5603V24.7163L66.5796 25.1844V25.3404L66.4248 25.4965V25.6525H66.5796L66.4248 25.8085V25.6525H66.2699H66.115H65.9602L65.8053 25.8085L65.4956 25.9645L65.1858 26.1206L65.031 26.2766L64.8761 26.4326L64.7212 26.2766L64.4115 26.1206L64.2566 25.9645H63.9469L63.792 25.8085H63.6372L63.3274 25.6525L63.0177 25.8085L62.708 25.6525L62.5531 25.4965L62.2434 25.3404L62.0885 25.4965H61.9336L61.7788 25.6525H61.6239H61.469L61.3142 25.8085L61.1593 25.9645L60.8496 26.1206V26.2766V26.4326L61.0044 26.5887V26.7447V26.9007L61.1593 27.0567V27.2128V27.3688L61.0044 27.2128H60.8496V27.3688H61.0044L60.8496 27.5248V27.6809H60.6947L60.5398 27.8369H60.385L59.6106 28.1489L59.3009 28.305H58.6814L58.5265 28.461H58.3717L58.0619 28.773L57.9071 28.9291L57.7522 29.2411H57.5973V29.3972H57.2876H56.823L56.6681 29.5532H56.5133H56.3584H56.2035H55.8938L55.7389 29.7092H55.2743H54.9646L54.3451 29.5532V29.7092L54.1903 29.5532H53.8805H53.7257H53.5708H53.4159L52.9513 29.7092H52.7965L52.4867 30.0213L52.3319 30.1773L52.177 30.3333V30.4894L52.0221 30.6454H51.8673L51.5575 30.8014V30.9574L51.2478 31.1135L51.0929 31.2695L50.7832 31.4255V31.5816H50.6283V31.7376H50.4734L50.3186 31.8936H50.1637L50.0088 32.0496L49.854 32.2057L49.5442 32.3617V32.5177L49.3894 32.6738V32.8298H49.2345L49.0796 32.9858L48.9248 33.1418L48.7699 33.2979H48.615L48.4602 33.4539L48.3053 33.6099L48.1504 33.766L47.8407 33.922L47.6858 34.078L47.3761 34.3901V34.5461V34.8582V35.0142L47.531 35.3262V35.4823V35.7943L47.6858 35.9504V36.1064V36.2624L47.531 36.7305V36.8865L47.2212 37.1986H47.0664H46.9115L46.7566 37.3546H46.6018V37.1986L46.4469 37.3546H46.292L46.1372 37.5106H45.8274L45.6726 37.6667H45.5177L45.3628 37.8227V37.9787H45.5177V38.1347L45.3628 37.9787H45.208V38.1347H45.0531L44.8982 37.9787V38.1347L44.7434 37.9787V38.2908V38.4468V38.6028V38.9149L44.5885 39.0709V39.2269L44.2788 39.0709L44.4336 38.7589L44.2788 38.6028H44.4336H44.5885V38.4468V38.2908L44.4336 38.1347H44.2788V38.2908V38.4468H44.1239V38.2908H43.969V38.4468H43.8142V38.7589L43.6593 38.6028H43.5044L43.3496 38.7589V38.9149L43.1947 38.7589V38.9149V39.0709V39.2269V39.383L43.0398 39.539V39.695L42.885 39.8511L43.0398 40.0071V40.1631H43.1947V40.0071L43.3496 40.1631L43.5044 40.3191L43.6593 40.4752V40.6312V40.7872L43.8142 40.9433V41.0993H44.1239H44.2788V41.2553L44.4336 41.4113H44.5885H44.7434H44.8982H45.0531L44.8982 41.2553L44.7434 40.9433V40.7872L44.8982 40.6312V40.3191V40.1631V40.0071V39.8511V39.695V39.539H45.0531L45.208 39.695V39.8511L45.3628 40.0071L45.208 40.3191L45.3628 40.4752V40.7872V40.9433L45.5177 41.4113H45.6726V41.5674V41.7234L45.8274 41.8794V42.0355H45.9823V42.1915H46.1372V42.3475H45.9823L45.8274 42.5035L45.6726 42.6596V42.8156L45.3628 43.1277V43.2837H45.208V43.4397L45.0531 43.5957V43.7518V43.9078L44.8982 44.0638H44.5885L44.2788 44.2199L44.1239 44.3759H43.969V44.5319H43.5044L43.3496 44.6879L42.885 44.844L42.7301 44.6879L42.5752 44.844H42.4204H42.1106H41.9558H41.8009H41.646H41.3363H41.1814H41.0265H40.7168H40.5619H40.4071H40.2522H40.0973V44.6879L39.9425 44.844H39.6327V44.6879H39.323H39.1681L38.8584 44.5319H38.5487L38.2389 44.3759L37.9292 44.2199H37.7743V43.9078L37.6195 43.7518H37.7743L37.6195 43.5957L37.7743 43.4397V43.2837V43.1277H37.9292V42.9716L38.0841 42.8156L38.2389 42.9716L38.5487 42.6596L38.7035 42.8156L38.8584 42.6596L39.0133 42.5035H39.1681L39.4779 42.3475V42.1915V41.8794L39.6327 41.7234V41.8794L39.7876 41.7234L39.9425 41.5674H40.0973H40.2522L40.4071 41.4113H40.5619L40.7168 41.2553L40.8717 41.0993L41.0265 40.9433V41.0993L41.1814 40.9433L41.3363 41.0993V40.9433L41.4912 41.0993L41.8009 41.2553L41.9558 41.0993L42.1106 40.9433L42.2655 40.6312V40.3191V40.1631V40.0071V39.8511L42.1106 39.695L41.9558 39.383H41.8009H41.3363V39.2269H41.8009V38.7589V38.6028H41.9558V38.4468V38.2908L42.1106 38.1347H42.2655V37.9787V37.8227V37.5106L42.1106 37.3546V37.0426L41.9558 36.7305L41.8009 36.2624L41.646 36.1064V35.9504H41.4912L41.3363 35.6383L41.1814 35.3262L41.0265 35.1702L40.8717 35.0142L40.5619 34.7021L40.4071 34.5461L40.0973 34.3901L39.9425 34.234L39.7876 33.922L39.6327 33.766H39.4779L39.1681 33.6099L39.0133 33.4539H38.7035V33.2979H38.5487V33.1418V32.9858H38.3938V32.6738H38.2389L38.0841 32.5177V32.3617H37.9292L37.7743 32.0496V31.8936L37.6195 31.7376V31.5816L37.4646 31.2695L37.3097 30.9574H37.1549V30.8014H37V30.6454L36.6903 30.4894V30.3333L36.5354 30.1773L36.3805 30.0213L36.2257 29.8652H36.0708L35.9159 29.7092L35.7611 29.5532V29.3972H35.6062V29.2411H35.4513L34.9867 28.9291L34.8319 28.773H34.9867V28.617L34.8319 28.773L34.677 28.617L34.5221 28.461H34.3673L34.2124 28.305L33.9027 28.1489H33.7478V27.9929V27.8369H33.5929H33.4381L33.2832 27.6809L32.9735 27.5248V27.3688L32.8186 27.0567V26.9007H32.6637L32.5089 26.7447L32.354 26.5887V26.4326L32.0442 26.2766H31.8894L31.7345 26.1206V25.9645H31.5796V25.8085L31.2699 25.6525H31.115L30.9602 25.4965L30.8053 25.3404H30.6504H30.4956V25.1844L30.3407 25.0284L30.031 24.7163L29.8761 24.5603L29.7212 24.4043V24.2482L29.4115 24.0922L29.2566 23.9362H28.9469L28.792 23.7801L28.4823 23.6241L28.3274 23.4681L28.1726 23.3121H28.0177L27.8628 23.156L27.0885 22.844H26.9336L26.7788 22.6879H26.6239H26.3142L26.1593 22.5319H26.0044L25.6947 22.3759L25.5398 22.2199H25.2301L25.0752 22.0638L24.9204 21.9078V22.0638L24.4558 21.9078Z" fill="white"/>
<path d="M6.95575 16.1348L7.26549 16.4468H7.42035L7.57522 16.6028H7.73009L8.03982 16.9149H8.19469V17.2269L8.34956 17.383L8.50442 17.539L8.81416 17.8511V18.0071L8.96903 18.1631H9.12389V18.3191H9.27876L9.5885 18.6312L9.89823 18.9433L9.74336 19.0993H9.89823L10.208 19.4113V19.5674V19.7234L10.5177 19.8794L10.8274 20.0355H10.9823H11.1372L11.4469 19.8794V20.0355L11.7566 20.1915H12.0664H12.3761L12.9956 20.3475V20.1915H13.7699L15.4735 19.7234H16.0929H16.7124L17.4867 19.5674L18.1062 19.7234H18.5708L19.5 19.8794L19.9646 20.0355H20.2743L20.5841 20.1915H20.8938L21.3584 20.3475L21.823 20.5035L22.1327 20.6596H22.2876L22.4425 20.8156V20.9716V21.1277H22.5973L22.9071 21.2837L23.0619 21.4397V21.5957H23.2168L23.3717 21.7518H23.5265H23.8363L23.9912 21.9078H24.4558L24.9204 22.0638V21.9078L25.0752 22.0638L25.2301 22.2199H25.5398L25.6947 22.3759L26.0044 22.5319H26.1593L26.3142 22.6879H26.6239H26.7788L26.9336 22.844H27.0885L27.8628 23.156L28.0177 23.3121H28.1726L28.3274 23.4681L28.4823 23.6241L28.792 23.7801L28.9469 23.9362H29.2566L29.4115 24.0922L29.7212 24.2482V24.4043L29.8761 24.5603M6.95575 16.1348L6.80088 15.9787L6.64602 15.6667M6.95575 16.1348H7.11062M6.64602 15.6667V15.3546M6.64602 15.6667V15.5106V15.3546M6.64602 15.6667L6.80088 15.8227V15.6667V15.5106V15.3546V15.1986M6.64602 15.3546L6.80088 15.1986M6.80088 15.1986V14.8865L6.64602 14.7305L6.49115 14.4184H6.33628M6.33628 14.4184V14.2624M6.33628 14.4184L5.87168 14.1064V13.9504L5.71681 13.7943V13.6383L5.56195 13.4823H5.40708L5.09735 13.3262V13.1702L4.94248 13.0142H4.78761V12.8582V12.7021L4.63274 12.5461V12.3901L4.47788 12.234L4.32301 11.922L4.16814 11.766L4.01327 11.2979L3.70354 10.9858V10.8298H3.54867V10.6738L3.39381 10.5177L3.23894 10.3617V10.2057H3.08407L2.9292 9.73759L2.77434 9.2695L2.61947 9.11347V8.95745V8.80142L2.4646 8.48936V8.33333V8.02128M2.4646 8.02128L2.30973 7.86525L2.15487 7.70922L2 7.55319L2.15487 7.39716L2 7.24113V7.08511V6.92908V6.77305H2.15487V6.61702H2.30973M2.4646 8.02128V7.86525H2.61947M2.4646 8.02128H2.61947V7.86525M2.30973 6.61702H2.4646M2.30973 6.61702V6.77305H2.4646L2.61947 6.92908H2.4646H2.30973L2.4646 7.08511H2.61947H2.77434L2.61947 7.39716M2.61947 7.39716H2.77434M2.61947 7.39716H2.4646L2.30973 7.24113V7.39716V7.55319H2.4646V7.70922M2.4646 7.70922H2.61947M2.4646 7.70922L2.61947 7.86525M2.61947 7.86525H2.77434L2.9292 7.70922L3.08407 7.55319M3.08407 7.55319V7.39716M3.08407 7.55319L3.23894 7.39716L3.39381 7.08511V7.39716H3.54867L3.70354 7.24113H3.85841L4.01327 7.08511H4.16814L4.32301 6.92908H4.47788V6.77305L4.16814 6.46099H4.01327H3.85841M3.85841 6.46099V6.61702M3.85841 6.46099L3.70354 6.61702L3.54867 6.46099H3.39381H3.23894H3.08407L2.9292 6.30496H2.77434V6.14894H2.61947V5.99291V5.83688L2.77434 5.68085V5.52482L2.61947 5.05674V4.90071L2.4646 4.74468L2.30973 4.58865L2.15487 4.43262V4.2766H2L2.15487 4.12057V3.96454V3.65248V3.34043V3.1844V3.02837L2.30973 2.87234L2.77434 2.71631H2.9292H3.08407L3.70354 2.87234H4.16814H4.78761H4.94248H5.25221H5.40708V3.02837H5.56195V3.1844H5.71681V3.34043H5.87168L6.02655 3.65248V3.80851L6.18142 3.96454H6.33628L6.49115 4.43262H6.64602V4.58865L6.80088 4.74468L6.95575 4.90071V5.05674V5.21277M6.95575 5.21277V5.36879H6.80088M6.95575 5.21277L6.80088 5.36879M6.95575 5.21277L6.80088 5.05674V5.21277V5.36879M6.80088 5.36879H6.64602V5.52482L6.49115 5.68085H6.64602V5.83688H6.49115L6.33628 5.99291H6.49115H6.64602L6.80088 6.14894H6.95575H7.11062H7.26549L7.42035 5.99291L7.57522 5.83688L7.88496 5.52482V5.36879H8.19469V5.21277H8.34956L8.50442 5.05674L8.65929 4.90071H8.81416L8.96903 5.05674M8.96903 5.05674V5.21277H8.81416L8.96903 5.36879L9.12389 5.52482H9.27876L9.43363 5.36879M8.96903 5.05674L9.12389 5.21277H9.27876H9.43363L9.5885 5.36879H9.43363M8.96903 5.05674L9.12389 4.90071H9.27876L9.5885 4.74468V4.58865M9.43363 5.36879V5.52482M9.5885 4.58865L9.74336 4.74468V4.58865M9.5885 4.58865H9.74336M9.74336 4.58865V4.43262H9.89823H10.0531V4.2766H10.3628V4.43262H10.5177L10.6726 4.2766L10.8274 4.43262V4.58865V4.74468L10.6726 4.90071L10.5177 4.74468L10.6726 5.05674L10.8274 5.36879H10.9823L11.1372 5.21277V5.36879L11.292 5.21277V5.36879L11.4469 5.21277L11.6018 5.05674L11.7566 4.90071V5.05674L11.9115 4.90071M11.9115 4.90071H12.0664M11.9115 4.90071V4.74468L12.0664 4.58865V4.43262H12.2212V4.58865L12.531 4.74468H12.8407L12.9956 4.90071H13.1504V5.21277H13.3053H13.4602H13.615V5.05674V4.90071L13.7699 5.21277H13.9248L14.2345 5.52482L14.3894 5.68085H14.5442V5.52482H14.6991V5.68085H14.854H15.0088V5.83688H15.3186L15.4735 5.68085H15.6283H15.7832H15.9381L16.0929 5.52482L16.4027 5.68085L16.5575 5.83688L16.7124 5.99291H16.8673V6.14894H17.0221L17.3319 6.30496V6.14894L17.4867 5.99291V6.14894V6.30496H17.7965H18.1062V6.46099H18.5708L18.7257 6.61702L18.8805 6.77305H19.0354V6.92908H19.1903H19.3451L19.5 7.08511L19.6549 6.92908V7.08511H19.8097H20.1195L20.2743 7.24113H20.4292H20.5841H21.0487L21.2035 7.39716H21.3584L21.6681 7.55319H21.823H21.9779L22.1327 7.70922H22.2876H22.4425L22.5973 7.86525L22.7522 8.02128L22.9071 7.86525H23.0619V8.02128L23.2168 8.1773L23.3717 8.33333H23.5265H23.6814L23.8363 8.02128V8.1773L23.9912 8.33333H24.146H24.3009V8.1773H24.4558L24.6106 8.33333L24.9204 8.48936H25.0752H25.2301H25.385H25.6947H25.8496H26.0044H26.1593H26.469V8.33333H26.6239L26.7788 8.1773H26.9336H27.0885L27.2434 8.02128L27.3982 8.1773L27.708 8.02128L27.8628 7.86525V7.70922L28.1726 7.86525H28.4823L28.792 7.70922H28.9469H29.1018H29.2566L29.5664 7.86525H29.8761L30.1858 7.70922H30.3407H30.6504H30.8053H30.9602H31.115H31.7345H32.0442L32.354 7.55319H32.5089L32.6637 7.39716H32.9735H33.1283L33.2832 7.24113H33.4381V6.92908L33.5929 6.77305H33.7478H33.9027H34.0575H34.2124L34.3673 6.61702L34.5221 6.46099V6.30496V6.14894H34.677L34.9867 5.99291L35.2965 5.83688L35.4513 5.68085H35.6062L35.7611 5.52482V5.36879L35.9159 5.21277L36.0708 5.05674L36.2257 4.90071V4.74468H36.3805L36.5354 4.58865V4.43262L36.6903 4.2766H36.8451L37 4.12057L37.1549 3.96454V3.80851L37.3097 3.65248H37.4646V3.49645L37.6195 3.34043H37.9292L38.2389 3.1844L38.8584 2.56028L39.1681 2.40426L39.323 2.24823L39.4779 2.0922H39.6327H39.7876L40.2522 1.93617L40.4071 1.78014L40.8717 1.62411L41.3363 1.31206L41.646 1.15603H41.8009H42.2655L43.0398 1H43.1947L43.3496 1.15603L43.5044 1.31206H43.6593H43.8142L43.969 1.62411H44.1239L44.2788 1.78014H44.5885L44.8982 1.93617L45.3628 2.0922H45.6726L45.8274 2.24823H46.1372H46.4469H46.6018L47.0664 2.40426H47.2212H47.3761L47.531 2.56028H47.6858L47.8407 2.71631L48.1504 3.02837H48.3053H48.4602L48.7699 3.1844V3.34043H49.0796H49.3894L49.5442 3.49645H49.854H50.0088L50.1637 3.65248H50.3186L50.4734 3.80851H50.6283H50.7832H51.0929H51.2478H51.4027H51.5575L51.8673 3.96454V4.12057V4.2766H52.0221L52.177 4.43262L52.4867 4.58865L52.6416 4.74468H52.7965H53.1062L53.2611 4.90071H53.4159H53.5708L53.7257 5.05674H53.8805H54.0354L54.3451 5.21277L54.8097 5.36879L55.1195 5.52482L55.2743 5.68085L55.5841 5.83688V5.99291H55.7389H56.0487L56.2035 6.14894H56.3584H56.6681L56.823 6.30496H56.9779H57.1327L57.4425 6.46099L57.7522 6.61702H57.9071L58.0619 6.77305V7.08511H58.2168H58.3717L58.5265 7.39716H58.6814L58.8363 7.55319H58.9911L59.4557 7.70922H59.6106L59.7655 8.02128L59.9204 8.1773H60.0752L60.2301 8.33333H60.5398V8.64539L60.8496 8.95745V9.11347H61.1593L61.469 9.2695L61.7788 9.58156H61.9336L62.2434 9.73759H62.3982L62.5531 9.89362L62.708 10.0496H62.8628L63.0177 10.2057L63.3274 10.3617L63.6372 10.5177L63.792 10.8298L63.9469 10.9858H64.1018L64.2566 11.2979L64.4115 11.4539H64.5664L64.7212 11.766H64.8761V11.922L65.1858 12.234L65.3407 12.5461L65.4956 12.8582L65.6504 13.1702H65.8053L65.9602 13.3262V13.4823H66.115V13.6383L66.2699 13.7943L66.4248 13.9504L66.5796 14.1064H66.7345V14.2624H66.8894V14.5745L67.0442 14.7305L67.1991 15.0426V15.1986L67.354 15.3546V15.5106L67.5088 15.6667H67.6637L67.8186 15.8227L68.1283 16.1348H68.2832L68.5929 16.2908L68.7478 16.1348L68.9027 16.2908H69.0575V16.4468H69.2124L69.3673 16.2908L69.5221 16.6028H69.677L69.8319 16.7589H69.9867L70.2965 16.9149V17.0709H70.4513H70.6062V17.2269H70.7611L70.9159 17.383L71.0708 17.539V17.383L71.2257 17.539V17.695L71.3805 17.8511V18.0071L71.5354 18.1631V18.3191H71.6903L71.8451 18.4752V18.6312V18.7872V19.0993H72V19.2553L71.8451 19.4113L72 19.5674H71.8451V19.7234L72 19.8794L71.8451 20.0355L71.6903 20.1915V20.3475L71.5354 20.5035H71.3805V20.6596V20.8156H71.2257L71.0708 20.9716V21.1277L70.9159 21.2837L70.7611 21.4397L70.6062 21.5957V21.7518H70.4513L70.2965 22.0638H70.1416V22.2199H69.9867H69.8319V22.3759H69.5221H69.3673L69.2124 22.5319L69.0575 22.6879H68.9027V22.844H68.7478H68.4381L67.9734 23.156L67.6637 23.3121V23.6241V23.7801L67.5088 23.9362H67.354V24.0922H67.1991L67.0442 24.2482V24.4043H66.8894L66.7345 24.5603V24.7163L66.5796 25.1844V25.3404L66.4248 25.4965V25.6525M66.4248 25.6525H66.5796L66.4248 25.8085V25.6525ZM66.4248 25.6525H66.2699H66.115H65.9602L65.8053 25.8085L65.4956 25.9645L65.1858 26.1206L65.031 26.2766L64.8761 26.4326L64.7212 26.2766L64.4115 26.1206L64.2566 25.9645H63.9469L63.792 25.8085H63.6372L63.3274 25.6525L63.0177 25.8085L62.708 25.6525L62.5531 25.4965L62.2434 25.3404L62.0885 25.4965H61.9336L61.7788 25.6525H61.6239H61.469L61.3142 25.8085L61.1593 25.9645L60.8496 26.1206V26.2766V26.4326L61.0044 26.5887V26.7447V26.9007L61.1593 27.0567V27.2128V27.3688L61.0044 27.2128H60.8496V27.3688H61.0044L60.8496 27.5248V27.6809H60.6947L60.5398 27.8369H60.385L59.6106 28.1489L59.3009 28.305H58.6814L58.5265 28.461H58.3717L58.0619 28.773L57.9071 28.9291L57.7522 29.2411H57.5973V29.3972H57.2876H56.823L56.6681 29.5532H56.5133H56.3584H56.2035H55.8938L55.7389 29.7092H55.2743H54.9646L54.3451 29.5532V29.7092L54.1903 29.5532H53.8805H53.7257H53.5708H53.4159L52.9513 29.7092H52.7965L52.4867 30.0213L52.3319 30.1773L52.177 30.3333V30.4894L52.0221 30.6454H51.8673L51.5575 30.8014V30.9574L51.2478 31.1135L51.0929 31.2695L50.7832 31.4255V31.5816H50.6283V31.7376H50.4734L50.3186 31.8936H50.1637L50.0088 32.0496L49.854 32.2057L49.5442 32.3617V32.5177L49.3894 32.6738V32.8298H49.2345L49.0796 32.9858L48.9248 33.1418L48.7699 33.2979H48.615L48.4602 33.4539L48.3053 33.6099L48.1504 33.766L47.8407 33.922L47.6858 34.078L47.3761 34.3901V34.5461V34.8582V35.0142L47.531 35.3262V35.4823V35.7943L47.6858 35.9504V36.1064V36.2624L47.531 36.7305V36.8865L47.2212 37.1986H47.0664H46.9115L46.7566 37.3546H46.6018V37.1986L46.4469 37.3546H46.292L46.1372 37.5106H45.8274L45.6726 37.6667H45.5177L45.3628 37.8227V37.9787M45.3628 37.9787H45.5177V38.1347L45.3628 37.9787ZM45.3628 37.9787H45.208V38.1347H45.0531L44.8982 37.9787V38.1347L44.7434 37.9787V38.2908V38.4468V38.6028V38.9149L44.5885 39.0709V39.2269L44.2788 39.0709L44.4336 38.7589L44.2788 38.6028H44.4336H44.5885V38.4468V38.2908L44.4336 38.1347H44.2788V38.2908V38.4468H44.1239V38.2908H43.969V38.4468H43.8142V38.7589L43.6593 38.6028H43.5044L43.3496 38.7589V38.9149L43.1947 38.7589V38.9149V39.0709V39.2269V39.383L43.0398 39.539V39.695L42.885 39.8511L43.0398 40.0071V40.1631H43.1947V40.0071L43.3496 40.1631L43.5044 40.3191L43.6593 40.4752V40.6312V40.7872L43.8142 40.9433V41.0993H44.1239H44.2788V41.2553L44.4336 41.4113H44.5885H44.7434H44.8982H45.0531L44.8982 41.2553L44.7434 40.9433V40.7872L44.8982 40.6312V40.3191V40.1631V40.0071V39.8511V39.695V39.539H45.0531L45.208 39.695V39.8511L45.3628 40.0071L45.208 40.3191L45.3628 40.4752V40.7872V40.9433L45.5177 41.4113H45.6726V41.5674V41.7234L45.8274 41.8794V42.0355H45.9823V42.1915H46.1372V42.3475H45.9823L45.8274 42.5035L45.6726 42.6596V42.8156L45.3628 43.1277V43.2837H45.208V43.4397L45.0531 43.5957V43.7518V43.9078L44.8982 44.0638H44.5885L44.2788 44.2199L44.1239 44.3759H43.969V44.5319H43.5044L43.3496 44.6879L42.885 44.844L42.7301 44.6879L42.5752 44.844H42.4204H42.1106H41.9558M41.9558 44.844V45M41.9558 44.844H41.8009H41.646H41.3363H41.1814H41.0265H40.7168H40.5619H40.4071H40.2522H40.0973V44.6879L39.9425 44.844H39.6327V44.6879H39.323H39.1681L38.8584 44.5319H38.5487L38.2389 44.3759L37.9292 44.2199H37.7743V43.9078L37.6195 43.7518H37.7743L37.6195 43.5957L37.7743 43.4397V43.2837V43.1277H37.9292V42.9716L38.0841 42.8156L38.2389 42.9716L38.5487 42.6596L38.7035 42.8156L38.8584 42.6596L39.0133 42.5035H39.1681L39.4779 42.3475V42.1915V41.8794L39.6327 41.7234V41.8794L39.7876 41.7234L39.9425 41.5674H40.0973H40.2522L40.4071 41.4113H40.5619L40.7168 41.2553L40.8717 41.0993L41.0265 40.9433V41.0993L41.1814 40.9433L41.3363 41.0993V40.9433L41.4912 41.0993L41.8009 41.2553L41.9558 41.0993L42.1106 40.9433L42.2655 40.6312V40.3191V40.1631V40.0071V39.8511L42.1106 39.695L41.9558 39.383H41.8009H41.3363V39.2269H41.8009V38.7589V38.6028H41.9558V38.4468V38.2908L42.1106 38.1347H42.2655V37.9787V37.8227V37.5106L42.1106 37.3546V37.0426L41.9558 36.7305L41.8009 36.2624L41.646 36.1064V35.9504H41.4912L41.3363 35.6383L41.1814 35.3262L41.0265 35.1702L40.8717 35.0142L40.5619 34.7021L40.4071 34.5461L40.0973 34.3901L39.9425 34.234L39.7876 33.922L39.6327 33.766H39.4779L39.1681 33.6099L39.0133 33.4539H38.7035V33.2979H38.5487V33.1418V32.9858H38.3938V32.6738H38.2389L38.0841 32.5177V32.3617H37.9292L37.7743 32.0496V31.8936L37.6195 31.7376V31.5816L37.4646 31.2695L37.3097 30.9574H37.1549V30.8014H37V30.6454L36.6903 30.4894V30.3333L36.5354 30.1773L36.3805 30.0213L36.2257 29.8652H36.0708L35.9159 29.7092L35.7611 29.5532V29.3972H35.6062V29.2411H35.4513L34.9867 28.9291L34.8319 28.773M34.8319 28.773H34.9867V28.617L34.8319 28.773ZM34.8319 28.773L34.677 28.617L34.5221 28.461H34.3673L34.2124 28.305L33.9027 28.1489H33.7478V27.9929V27.8369H33.5929H33.4381L33.2832 27.6809L32.9735 27.5248V27.3688L32.8186 27.0567V26.9007H32.6637L32.5089 26.7447L32.354 26.5887V26.4326L32.0442 26.2766M32.0442 26.2766V26.1206M32.0442 26.2766H31.8894L31.7345 26.1206V25.9645H31.5796V25.8085L31.2699 25.6525H31.115L30.9602 25.4965L30.8053 25.3404H30.6504H30.4956V25.1844L30.3407 25.0284L30.031 24.7163L29.8761 24.5603M29.8761 24.5603L30.031 24.4043" stroke="black"/>
</svg>
