<svg width="1080" height="1080" viewBox="0 0 1080 1080" fill="none" xmlns="http://www.w3.org/2000/svg">
<g clip-path="url(#clip0_57_788)">
<path fill-rule="evenodd" clip-rule="evenodd" d="M230.658 55L81.6569 900.026L752.465 655.872L715 868.346L768.894 848.73C776.357 867.554 788.469 884.848 805.069 898.777C858.455 943.574 938.049 936.61 982.846 883.224C1012.02 848.459 1019.24 802.581 1005.99 762.436L1052.74 745.419L887.463 606.736L887.971 606.551L230.658 55ZM1005.99 762.436C998.888 740.932 985.914 721.072 967.292 705.447C913.905 660.65 834.312 667.614 789.515 721C758.648 757.787 752.356 807.016 768.894 848.73L1005.99 762.436ZM421.036 214.748L358.343 570.296L697.603 446.816L421.036 214.748Z" fill="white"/>
</g>
<defs>
<clipPath id="clip0_57_788">
<rect width="1080" height="1080" fill="white"/>
</clipPath>
</defs>
</svg>
