<svg width="1080" height="1080" viewBox="0 0 1080 1080" fill="none" xmlns="http://www.w3.org/2000/svg">
<g clip-path="url(#clip0_2001_292)">
<rect width="1080" height="1080" rx="42" fill="white"/>
<path d="M845.237 595.653L983.528 711.693L944.407 725.932C938.467 707.939 927.613 691.322 912.032 678.248C867.362 640.765 800.764 646.591 763.281 691.261C737.454 722.041 732.191 763.232 746.028 798.135L700.932 814.55L732.28 636.766L170.996 841.057L295.669 134L845.662 595.499L845.237 595.653ZM402.507 565.163L686.376 461.843L454.964 267.665L402.507 565.163ZM944.407 725.932C955.496 759.522 949.455 797.909 925.046 826.998C887.564 871.668 820.966 877.495 776.296 840.013C762.405 828.357 752.272 813.886 746.028 798.135L944.407 725.932Z" fill="#1C1C1C"/>
</g>
<defs>
<clipPath id="clip0_2001_292">
<rect width="1080" height="1080" fill="white"/>
</clipPath>
</defs>
</svg>
